<svg xmlns="http://www.w3.org/2000/svg" viewBox="0 0 133.569 30"><defs><style>.a{fill:#25317a;}.b{fill:#00dbcf;}</style></defs><g transform="translate(-501 -344)"><g transform="translate(501 344)"><path class="a" d="M10.96,42.49H18.4V56.9h0a7.44,7.44,0,0,1-7.439-7.439V42.49Z" transform="translate(-6.939 -26.903)"/><path class="b" d="M3.921,0H7.3a5.293,5.293,0,0,1,5.293,5.293h0v4.3H11.2v4.354l-4.01-2.4a3.376,3.376,0,0,0-1.926-.605H3.921A3.923,3.923,0,0,1,0,7.025v-3.1A3.928,3.928,0,0,1,3.921,0Z"/><path class="a" d="M53.08,31.883l2.494-5.415a18.267,18.267,0,0,0,10.583,3.114q5.266,0,5.264-2.2a1.474,1.474,0,0,0-1.078-1.412,19.167,19.167,0,0,0-4.479-.734q-6.576-.649-9.1-2.428t-2.52-5.792a6.972,6.972,0,0,1,3.158-6.067q3.158-2.168,8.8-2.168a20.089,20.089,0,0,1,11.324,3.063l-2.384,5.172A14.876,14.876,0,0,0,66.671,14.6q-5.024,0-5.044,2.161a1.5,1.5,0,0,0,1.064,1.467,18.872,18.872,0,0,0,4.461.734q6.576.611,9.116,2.381t2.539,5.781a6.974,6.974,0,0,1-3.14,6.189q-3.142,2.107-9.27,2.106Q58.258,35.411,53.08,31.883Z" transform="translate(-33.608 -5.559)"/><path class="a" d="M134.479,31.8a12.643,12.643,0,0,1-3.9-9.688,12.569,12.569,0,0,1,3.9-9.677q3.9-3.632,10.323-3.628t10.334,3.613a12.611,12.611,0,0,1,3.877,9.677,12.734,12.734,0,0,1-3.877,9.7q-3.879,3.637-10.345,3.639T134.479,31.8Zm15.3-4.622a6.985,6.985,0,0,0,1.878-5.07,6.94,6.94,0,0,0-1.878-5.07,6.626,6.626,0,0,0-4.978-1.933,6.455,6.455,0,0,0-4.938,1.933,6.941,6.941,0,0,0-1.875,5.07,6.986,6.986,0,0,0,1.875,5.07,6.589,6.589,0,0,0,4.938,1.93A6.68,6.68,0,0,0,149.78,27.181Z" transform="translate(-82.678 -5.578)"/><path class="a" d="M225.516,16.14v4.468h14v6.17h-14V35.7H218.26V9.97h23.716v6.17Z" transform="translate(-138.194 -6.313)"/><path class="a" d="M320.118,16.14h-9.123V35.7h-7.26V16.14h-9.1V9.97h25.488Z" transform="translate(-186.549 -6.313)"/></g></g></svg>